<?xml version="1.0" encoding="UTF-8"?>
<svg xmlns="http://www.w3.org/2000/svg" viewBox="0 0 128 128">
  <defs>
    <linearGradient id="a" x1="1.836" y1="91.346" x2="126.164" y2="36.654" gradientUnits="userSpaceOnUse">
      <stop offset="0" stop-color="#e0e0e0"/>
      <stop offset="1" stop-color="#f5f5f5"/>
    </linearGradient>
  </defs>
  <circle cx="64" cy="64" r="64" fill="url(#a)"/>
  <path d="M64 14A50 50 0 1 1 14 64 50.06 50.06 0 0 1 64 14m0-2a52 52 0 1 0 52 52A52 52 0 0 0 64 12Z" fill="#989898"/>
  <path fill="#989898" d="m64 14 3.46 9.51 10.21-1.95-8.05 6.79 7.13 7.75-10.19-2.04-2.56 9.76-2.57-9.76-10.17 2.04 7.11-7.75-8.03-6.79 10.2 1.95L64 14zM84.99 33.01l.88 10.05 10.29 1.22-9.53 4.13 3.55 9.67-9.03-5.09-7.12 7.76 2.55-10.16-9.77-2.55 9.06-5.04-1.08-9.99zM95.81 61.64l-1.8 9.9 7.97 6.87-10.21-1.91-3.52 9.67-3.12-9.8-9.97 2.03 6.59-8.13-4.29-9.29 9.88 1.13 8.47-6.47zM84.99 94.99l-4.97 8.75 4.32 9.27-7.14-7.73-9.14 4.92 3.59-9.67-9.65-3.6 9.8-3.12-1.91-10.2 7.47 7.4 7.63-7.02zM43.01 94.99l7.63 7.02 7.47-7.4-1.91 10.2 9.8 3.12-9.65 3.6 3.59 9.67-9.14-4.92-7.14 7.73 4.32-9.27-4.97-8.75zM32.19 66.36l8.47 6.47 9.88-1.13-4.29 9.29 6.59 8.13-9.97-2.03-3.12 9.8-3.52-9.67-10.21 1.91 7.97-6.87-1.8-9.9zM43.01 33.01l-1.08 9.99 9.06 5.04-9.77 2.55 2.55 10.16-7.12-7.76-9.03 5.09 3.55-9.67-9.53-4.13 10.29-1.22.88-10.05z"/>
  <path d="M64 14c.62-1.66.74-1.48 1.78-3.1-.24 2.69 3.61 8.35 4.38 10.65 3.47-.32 4.66 0 7.93-.54-2.07 2.49-7.21 4.51-8.43 6.83a152.2 152.2 0 0 1 7.76 8.41c-3.42-.75-4.88-1-7.78-1.27-1.1 3.4-1.23 3.3-2.65 8.39-1.3-3.41-1.2-6-2.64-8.39-3.36.4-4.23.49-7.78 1.27 1.87-2.13 6.31-6.97 7.76-8.41-1.48-1.23-7.05-4.94-8.43-6.83 3.21.62 3.27.76 7.93.54 1.12-3.3 3.07-6.56 4.38-10.65-1.05 1.63-1.15 1.45-1.77 3.1h-.44z" fill="#868686"/>
  <path d="m84.84 32.37.94 10.69c3.73.44 6.84.75 10.94 1.31-3.65 1.58-6.72 3.05-10.13 4.39 1.55 3.32 2.01 5.42 3.77 10.28-3.71-2.09-7.25-3.92-9.6-5.42-2.6 2.84-4.32 5.55-7.57 8.25.93-3.68.72-8.13 2.7-10.81-3.3-.86-5.74-1.86-10.38-2.71 3.29-1.14 5.38-1.07 9.64-1.81-.38-3.7-.7-6.45-1.17-10.61 3.05 2.32 3.63 3.15 9 6.68-.5-3.28-.79-6.55-1.31-10.91 3.05 2.32 2.36 2.48 3.17 3.67zM96.49 60.7c-.56 3.92-1.47 7.01-1.92 10.52 3.18 2.91 4.83 4.44 8.46 7.31a122.28 122.28 0 0 0-10.85-2.03c-1.92 3.21-3.12 5.89-3.74 10.28-1.16-3.6-1.58-6.92-3.31-10.42-3.27.67-6.4 1.81-10.6 2.16 2.33-2.88 3.42-4.36 7.01-8.65-1.67-2.83-3.2-5.16-4.56-9.88 3.01.34 7.75.98 10.5 1.21 3.14-2.4 5.47-4.58 8.12-6.89-.67 3.92.31 2.42.94 6.4zM85.14 93.96c-1.6 2.83-4.13 5.27-5.28 9.3 1.61 3.55 2.49 6.44 4.59 9.85-2.67-2.89-4.42-5.32-7.59-8.22-3.17 1.69-4.24 3.9-9.72 5.23 1.5-3.37 2.1-6.12 3.82-10.29-3.25-1.05-7.96-2.13-10.26-3.82a131.35 131.35 0 0 0 10.42-3.32c-.67-3.92-1.14-6.69-2.03-10.85 2.49 2.89 4.59 4.79 7.95 7.87 2.33-2.88 3.3-5.59 8.11-7.63-1.14 3.61-.93 7.47-1.2 10.89 3.72 2.09 6.94 3.74 11.19 5.99-3.78-.38-6.5-1.02-10-2z" fill="#868686"/>
  <path d="M43.22 32.36c.54 3.3.96 6.57-.31 10.92a223.73 223.73 0 0 0 9-6.68c-.37 3.36-.72 6.09-1.17 10.61 3.48.62 6.28.72 9.64 1.81-3.94.73-6.83 1.62-10.38 2.71 1.09 3.49 1.83 7.1 2.7 10.81-2.7-2.87-4.44-5.3-7.57-8.25-2.33 1.5-5.23 3.3-9.6 5.42 1.76-4.86 1.88-7.15 3.77-10.28-3.41-1.33-6.48-2.8-10.13-4.39 3.54-.53 6.65-.88 10.94-1.31l.94-10.69c.88-1.17.03-1.19 3.17-3.67zM32.95 65.41c3.01.34 6.3.8 10.5 1.21-1.36 4.72-2.89 7.05-4.56 9.88 3.7 4.5 4.78 5.78 7.01 8.65-3.44-.31-7.24-1.52-10.6-2.16-1.73 3.5-2.14 6.82-3.31 10.42-.62-4.39-1.82-7.07-3.74-10.28-3.95.82-7.48 1.41-10.85 2.03 3.63-2.87 5.28-4.4 8.46-7.31-.45-3.51-1.36-6.6-1.92-10.52.63-3.98 1.61-2.48.94-6.4 2.65 2.3 4.97 4.49 8.12 6.89c-.08-.14-.05-.28-.05-.41zM43.22 94.98c3.54 1.96 5.21 4.83 8.11 7.63 3.36-3.08 5.46-4.98 7.95-7.87-.89 4.16-1.36 6.93-2.03 10.85a131.35 131.35 0 0 0 10.42 3.32c-2.3 1.69-7.01 2.77-10.26 3.82 1.72 4.17 2.32 6.91 3.82 10.29-5.48-1.33-6.29-3.54-9.72-5.23-3.17 2.9-5.05 5.39-7.59 8.22 2.1-3.41 2.98-6.3 4.59-9.85-1.15-4.02-3.68-6.47-5.28-9.3-3.5.98-6.22 1.62-10 2 4.25-2.25 7.47-3.9 11.19-5.99-.27-3.42-.06-7.28-1.2-10.89z" fill="#868686"/>
</svg>
